<svg id="Capa_1" data-name="Capa 1" xmlns="http://www.w3.org/2000/svg" viewBox="0 0 205.98 54.99"><defs><style>.cls-1{fill:#383a3c;}</style></defs><path class="cls-1" d="M70.45,3.11,62.79,45.84h9L73.06,38h6.22l1.3,7.88H90L82.46,3.11ZM73.2,33.77l3-23.21,3,23.21Z"/><path class="cls-1" d="M107.4,38.68a2.8,2.8,0,0,1-.5.8,2.75,2.75,0,0,1-1,.72,3.55,3.55,0,0,1-1.55.29,3.08,3.08,0,0,1-2.1-.58,2.62,2.62,0,0,1-.83-1.52,10.69,10.69,0,0,1-.18-2V10.05H93V36.88a17.85,17.85,0,0,0,.62,5A5.89,5.89,0,0,0,96,45.16a9.28,9.28,0,0,0,5.2,1.19,7,7,0,0,0,4.42-1.41A6.59,6.59,0,0,0,108,41.5l.65,4.34h7V10.05H107.4Z"/><path class="cls-1" d="M133.51,10.41a7.64,7.64,0,0,0-2.75,1.34,5.91,5.91,0,0,0-1.95,2.57l-.73-4.27h-7V45.84h8.24V22.78a7.15,7.15,0,0,1,1-3.87,5.33,5.33,0,0,1,2.78-2.21,4.24,4.24,0,0,1,2.1-.65,13.09,13.09,0,0,1,2.2,0l1.12.11V9.91A8.39,8.39,0,0,0,133.51,10.41Z"/><path class="cls-1" d="M158.88,10.16a23,23,0,0,0-7-.83,14.82,14.82,0,0,0-6.72,1.19,6,6,0,0,0-3,3.25,13.62,13.62,0,0,0-.76,4.74v3.83h7.44v-3a11.13,11.13,0,0,1,.58-4.23,2.42,2.42,0,0,1,2.46-1.27,4.05,4.05,0,0,1,1.56.29,2.13,2.13,0,0,1,1,.9,3.56,3.56,0,0,1,.36,1.78v1.95a6,6,0,0,1-.57,2.85,4.77,4.77,0,0,1-1.88,1.78A38.53,38.53,0,0,1,148.83,25a15.59,15.59,0,0,0-6.25,3.65,7.77,7.77,0,0,0-2,5.53V39a8.92,8.92,0,0,0,1,4.81,4.83,4.83,0,0,0,2.67,2.13,11.73,11.73,0,0,0,3.51.51,8.65,8.65,0,0,0,4.52-1.23A5.55,5.55,0,0,0,155,41.87v4h8.24V17.57a10.3,10.3,0,0,0-.94-4.81A5.63,5.63,0,0,0,158.88,10.16Zm-4,25.2a9.4,9.4,0,0,1-.75,4.16A2.8,2.8,0,0,1,151.36,41a2.9,2.9,0,0,1-1.44-.36,2.37,2.37,0,0,1-1-1.27,6.44,6.44,0,0,1-.37-2.42V33.26a4.41,4.41,0,0,1,.73-2.71,8.79,8.79,0,0,1,2.09-1.92c.68-.43,1.35-.83,2-1.19a3.56,3.56,0,0,0,1.44-1.26Z"/><path class="cls-1" d="M173.71,3.11,166,45.84h9L176.31,38h6.22l1.3,7.88h9.4L185.71,3.11Zm2.74,30.66,3-23.21,3,23.21Z"/><rect class="cls-1" x="196.85" y="3.11" width="8.39" height="42.73"/><path class="cls-1" d="M52,21.24A14.42,14.42,0,0,0,38.28,6.67a1.42,1.42,0,0,1-.92-.45A14.3,14.3,0,0,0,13.73,7.29a2,2,0,0,1-1.06.76A14.2,14.2,0,0,0,2.3,24.33a3.21,3.21,0,0,1-.24,2.06A13.08,13.08,0,0,0,1,34.57c1.31,6.55,5.72,10.72,12.4,11.76a1.07,1.07,0,0,1,.92.61,14.31,14.31,0,0,0,12,7.56h.59a14.34,14.34,0,0,0,12-6.57,1.83,1.83,0,0,1,.92-.67,14.26,14.26,0,0,0,10-17.9,1.49,1.49,0,0,1,.13-1A14,14,0,0,0,52,21.24ZM11.81,12.56a22.69,22.69,0,0,0-.12,2.49,23.38,23.38,0,0,0,.21,2.45q0,.36.09.75a15,15,0,0,0-6.32,3.19,9,9,0,0,1,1.41-5,9.65,9.65,0,0,1,4.76-4.26ZM24.33,29a10.32,10.32,0,0,1-9.51,3.5,10.33,10.33,0,0,1-8.28-6.24.81.81,0,0,1,0-.56,10.7,10.7,0,0,1,6.4-4l.18,0c.2,0,.3.14.54.52l.09.14a14.15,14.15,0,0,0,9.56,6.51C23.67,28.86,24,28.9,24.33,29Zm.21-13.41a14,14,0,0,0-.45,9.66.53.53,0,0,1,0,.12,9.8,9.8,0,0,1-3.48-1.22,10.79,10.79,0,0,1-5.07-12.25c.17-.56.33-.71.84-.71h.11a10.67,10.67,0,0,1,7.8,3.63C24.63,15.1,24.67,15.23,24.54,15.54Zm4.13,10.22a11.51,11.51,0,0,1,8.4-3h0c3.07.09,6,2,8.18,5.13.22.33.23.43-.12.78a10.71,10.71,0,0,1-16.56-2.11C28.33,26.17,28.34,26.07,28.67,25.76Zm-1.1,14.12a1,1,0,0,1-.14-.55,15.53,15.53,0,0,0,1.92-6.77,6.86,6.86,0,0,0,1.51.88A46.21,46.21,0,0,0,35.64,35a1.22,1.22,0,0,1,1,.73,10.75,10.75,0,0,1,.4,7.91c-.13.41-.24.48-.56.48A10.45,10.45,0,0,1,27.57,39.88ZM16.79,36.65a1.13,1.13,0,0,1,.49-.52,14.87,14.87,0,0,0,8.46-3.51v.11a10.28,10.28,0,0,1-.27,2,10.74,10.74,0,0,1-8.3,8c-.44.11-.6.07-.65,0s-.14-.14-.2-.55A10.65,10.65,0,0,1,16.79,36.65Zm19-17.9a1,1,0,0,1-.43.44A14.73,14.73,0,0,0,27.1,22.4a9.11,9.11,0,0,1,.13-3.65,10.56,10.56,0,0,1,8-8.2,1.4,1.4,0,0,1,.33-.07c.16,0,.23.11.33.38A10.55,10.55,0,0,1,35.81,18.75ZM25,42.45a14.52,14.52,0,0,0,9.57,5.19A10.63,10.63,0,0,1,18,46.17,15.26,15.26,0,0,0,25,42.45ZM18,7.71A10,10,0,0,1,25.5,4.1a10.34,10.34,0,0,1,8,3.21A15.09,15.09,0,0,0,26.62,12,14.56,14.56,0,0,0,18,7.71ZM12.63,42c0,.22,0,.44,0,.66-2.14-.08-4.49-1.67-6.23-4.25-1.88-2.79-2.55-6-1.83-8.34a14.73,14.73,0,0,0,8.62,5.78c-.05.26-.1.52-.14.78a25.7,25.7,0,0,0-.4,2.69C12.6,40.16,12.62,41.07,12.63,42Zm28.26,1A15.41,15.41,0,0,0,40.18,35a14.88,14.88,0,0,0,6.47-3A10.46,10.46,0,0,1,40.89,43ZM39.5,10.41A10.71,10.71,0,0,1,47.6,25a14.78,14.78,0,0,0-8.22-5.46A15,15,0,0,0,39.5,10.41Z"/></svg>