<?xml version="1.0" encoding="utf-8"?>
<!-- Generator: Adobe Illustrator 24.1.0, SVG Export Plug-In . SVG Version: 6.00 Build 0)  -->
<svg version="1.1" id="Capa_1" xmlns="http://www.w3.org/2000/svg" xmlns:xlink="http://www.w3.org/1999/xlink" x="0px" y="0px"
	 viewBox="0 0 316.5 330.3" style="enable-background:new 0 0 316.5 330.3;" xml:space="preserve">
<style type="text/css">
	.st0{fill:#383A3C;}
	.st1{fill:#FFFFFF;}
</style>
<rect y="0" class="st0" width="316.5" height="330.3"/>
<path class="st1" d="M292.6,131.7c-0.2,13.1-3.9,25.8-10.7,37c-1.2,2.2-1.5,4.8-0.9,7.2c11.7,39.1-10.5,80.2-49.6,91.9
	c-0.6,0.2-1.3,0.4-1.9,0.5c-2.6,0.8-4.8,2.5-6.4,4.7c-21.9,34.2-67.4,44.1-101.6,22.2c-10.7-6.8-19.4-16.3-25.3-27.5
	c-1.3-2.7-3.9-4.4-6.8-4.6C55,257.8,32,236.4,25.1,202.3c-2.8-14.2-1-29,5.3-42.1c1.9-3.9,2.4-8.2,1.6-12.5
	c-6.8-37.7,16.5-74.2,53.5-84c2.9-0.9,5.5-2.8,7.2-5.3c21.4-34.7,66.8-45.5,101.5-24.2c8,4.9,15,11.3,20.6,18.8
	c1.8,2,4.2,3.2,6.9,3.4C261.8,58.3,293.2,91.6,292.6,131.7z M215.6,137c-20.9,0-35.7,6.1-46.9,16.8c-2.4,1.8-2.8,5.1-1,7.5
	c0,0,0.1,0.1,0.1,0.1c17.3,28.2,54.2,37.1,82.5,19.8c3.7-2.3,7.2-4.9,10.3-8c2.3-1.6,2.9-4.7,1.3-7c-0.1-0.2-0.2-0.3-0.3-0.4
	c-12.1-18.2-28.8-28.2-45.9-28.7V137z M151.8,170.7c-3.4-0.5-6.3-0.8-9.1-1.3c-20.5-3.6-38.5-15.9-49.4-33.6c-1.7-2.6-3-5.3-7.2-4.5
	c-14.2,2.9-26.9,10.8-35.7,22.4c-1,1.7-1.2,3.7-0.6,5.6c16.5,40.3,73.4,48.1,100.4,14.3c0.6-0.9,1.1-1.7,1.6-2.7V170.7z
	 M149.4,156.4c-0.1-1.5-0.3-3-0.6-4.4c-5.2-16.4-4.4-34.1,2.3-49.9c1.1-2.4,0.4-5.3-1.7-7c-11.1-12.5-26.9-19.9-43.6-20.3
	c-3.6-0.6-7,1.8-7.7,5.4c0,0.1,0,0.2,0,0.3c-7.4,26.7,4.3,55,28.3,68.6c7,4.1,14.9,6.7,23,7.4L149.4,156.4z M172.1,187.4
	c-0.2,0.6-0.4,1.2-0.5,1.8c-0.1,13.2-3.5,26.2-9.9,37.8c-0.6,2-0.3,4.2,1,5.9c11.5,15.8,30.2,24.7,49.7,23.8c2.6,0,4.9-1.8,5.3-4.4
	c4.8-14.3,4-29.9-2.1-43.7c-1.3-2.8-3.9-4.9-7-5.3c-8.6-2.4-17-5.2-25.3-8.4c-4-2.1-7.7-4.5-11.2-7.3V187.4z M272.8,157.4
	c9.1-21.4,8.7-40.4-2.7-58.8c-9.9-16-26.7-26.4-45.4-28.1c6.4,17.4,6.4,36.6,0,54C244.4,128.6,261.7,140.5,272.8,157.4z
	 M109.1,263.3c12.1,18.5,28,28.9,49.3,29.9c19.1,0.9,37.5-7.4,49.4-22.5c-22.3-1.1-42.9-11.9-56.5-29.6
	C139.7,252.6,125,260.3,109.1,263.3z M160.5,142c1.1-0.3,1.5-0.3,1.7-0.5c12.5-10.7,28.2-17,44.6-18.1c2.1-0.6,3.8-2,4.6-4
	c5.9-14.1,6-30,0.4-44.2c-1.3-3.6-3.3-4.3-6.8-3.3c-22.5,5.3-39.9,23.1-44.6,45.7C158.6,125.7,158.6,134,160.5,142z M108.6,61.7
	c19.7,1.2,38.1,10,51.4,24.6c10.4-13.4,24.8-23,41.1-27.5c-22.9-29.3-71.3-28.7-92.6,2.8L108.6,61.7z M41.2,173
	c-14.2,29,16.7,77.7,46.4,75.6c0-6.8-0.4-13.6,0-20.3s2-13.4,3.2-20.9C70.3,203.3,52.3,190.8,41.2,173z M158.1,188c-1.6,0-2,0-2.2,0
	c-12.6,11.9-29,19.2-46.3,20.6c-2.2,0.7-4,2.3-4.9,4.4c-3.6,9.9-4.6,20.7-2.7,31.1c0.7,5.3,3.3,6.1,7.8,5c22.9-4.6,41-22,46.4-44.7
	C157.1,199,157.8,193.5,158.1,188z M268.4,184.8c-11.2,9.9-25.1,16.2-39.9,18.4c6.4,15.5,7.8,32.5,4.1,48.8
	C259.8,242.7,275.9,210,268.4,184.8z M84.3,117.7c-0.7-7.1-1.8-13.2-1.9-19.3c-0.1-6.1,0.7-12.5,1.1-18.8
	C58.8,85.6,40.4,119,45.8,138C56.4,127.7,69.8,120.6,84.3,117.7z"/>
<path class="st1" d="M161.2,308.9H158c-26.8-1.2-51-16.4-63.5-40.1c-1-2.1-3-3.5-5.3-3.6c-35.5-5.3-58.8-27.7-65.8-62.4
	c-2.9-14.7-0.9-29.9,5.7-43.3c1.7-3.5,2.1-7.6,1.3-11.4c-7.1-38.7,16.8-76.4,54.9-86.4c2.4-0.7,4.6-2.2,6-4.3
	c21.9-35.7,68.6-46.8,104.2-24.9c8.2,5,15.3,11.6,21.1,19.2c1.4,1.5,3.3,2.4,5.3,2.6c41,2.1,73.1,36.2,72.6,77.3
	c-0.1,13.4-3.8,26.5-10.7,38c-0.9,1.7-1.2,3.8-0.7,5.7c12,40-10.7,82.2-50.7,94.3c-0.8,0.2-1.6,0.5-2.4,0.7c-2.2,0.7-4,2-5.3,3.9
	C210.7,295.7,186.8,308.8,161.2,308.9z M155.8,25.5h-3.4c-23.7,1.3-45.2,14.1-57.7,34.2c-2,2.9-5,5-8.3,6
	c-36.1,9.4-58.9,45-52.2,81.7c0.9,4.7,0.4,9.5-1.7,13.8c-6.2,12.7-8.1,27-5.3,40.9c6.6,32.9,28.7,54,62.4,59.2
	c3.5,0.2,6.6,2.2,8.3,5.3c18.5,34.9,61.8,48.2,96.7,29.7c10.9-5.8,20.1-14.3,26.8-24.7c1.9-2.6,4.5-4.4,7.5-5.3
	c38.3-10.2,61-49.6,50.7-87.8c-0.2-0.7-0.4-1.3-0.6-2c-0.7-3-0.3-6.1,1.2-8.7c6.6-10.8,10.2-23.3,10.3-35.9l0,0
	c0.5-38.9-29.9-71.3-68.7-73.3c-3.2-0.2-6.3-1.7-8.4-4.2c-13.7-18.1-35.1-28.8-57.8-29L155.8,25.5z M161.5,295.4h-3.1
	c-21.4-1-38-11-50.9-30.8l-1.7-2.5l2.8-0.6c15.6-2.8,29.9-10.3,41.1-21.4l1.6-1.6l1.4,1.8c13.3,17.2,33.4,27.8,55.1,28.8h4l-2.7,3
	c-11.6,14.6-29.2,23.1-47.9,23.2L161.5,295.4z M112.3,264.6c10,16,27.2,26,46.1,26.7c17.1,1,33.8-6,45.1-18.8
	c-20.6-2-39.5-12.1-52.5-28.2C140.2,254.5,126.8,261.5,112.3,264.6z M210.8,259.2c-19.6,0.4-38.2-8.9-49.8-24.7
	c-1.7-2.3-2.2-5.4-1.1-8.1c6.3-11.3,9.6-24,9.7-36.9c0-0.6,0.2-1.2,0.4-1.7l1-3.1l2.2,1.4c1.2,0.7,2.5,1.6,3.6,2.4
	c2.3,1.7,4.7,3.1,7.3,4.3c8.2,3.2,16.6,6,25.1,8.3c3.7,0.7,6.8,3.1,8.3,6.6c6.5,14.4,7.3,30.6,2.3,45.6c-0.7,3.5-3.8,6-7.4,5.9
	H210.8z M173.4,191.3c-0.4,13-3.9,25.7-10.2,37.1c-0.2,1.3,0.1,2.6,0.8,3.7c11.2,15.3,29.2,23.9,48.1,23.2c2.1,0,2.8-0.7,3.6-3.1
	c4.8-14,4-29.3-2.1-42.8c-1-2.3-3.2-4-5.7-4.3c-8.6-2.4-17.1-5.2-25.5-8.5c-2.9-1.3-5.6-2.9-8.1-4.8L173.4,191.3z M230,255.2
	l0.6-3.4c3.6-15.9,2.3-32.6-4-47.7l-1-2.4l2.5-0.4c14.4-2.1,27.9-8.4,38.9-18.1l2.4-2.1l0.9,3c8.1,26.7-9.6,60.2-37.1,69.5
	L230,255.2z M231.3,205c5.4,14,6.8,29.3,4,44.1c22.8-9.9,37.4-37.4,32.1-60.5C257,197,244.5,202.6,231.3,205L231.3,205z
	 M106.7,251.4c-1.3,0-2.6-0.3-3.6-1c-1.9-1.5-3-3.7-3.1-6.2c-1.9-10.8-0.9-21.8,2.9-32.1c1.1-2.8,3.6-4.9,6.5-5.7
	c16.9-1.3,32.8-8.4,45.1-20c0.6-0.5,1.3-0.7,2-0.6h1.4l2.5-0.3l-0.3,2.5c-0.2,1.8-0.4,3.6-0.5,5.3c-0.2,3.9-0.7,7.7-1.6,11.4
	c-5.5,23.5-24.2,41.6-47.8,46.5C109,251.5,107.8,251.5,106.7,251.4z M155.8,190.9c-12.8,11.4-29,18.3-46.1,19.7
	c-1.4,0.6-2.5,1.8-3.2,3.2c-3.5,9.6-4.4,20-2.6,30.1c0,1.2,0.6,2.8,1.4,3.4c0.8,0.5,2,0.4,4,0c22.1-4.5,39.6-21.4,44.9-43.3
	c0.9-3.5,1.4-7.1,1.5-10.7L155.8,190.9z M85.8,250.7c-13.2,0-27.7-9.4-38.1-24.8c-12.2-18.1-15.5-39.2-8.4-53.5l1.6-3.2l1.9,2.9
	c10.8,17.4,28.4,29.6,48.6,33.6l1.9,0.4L93,208c-0.4,2.3-0.7,4.5-1.2,6.8c-0.9,4.8-1.7,9.4-2,13.9s-0.3,9.3,0,13.9
	c0,2.1,0,4.2,0,6.3v1.9h-1.9L85.8,250.7z M41.6,177.2c-4.5,13.1-1,30.9,9.5,46.4c9.6,14.3,22.7,22.9,34.6,23.1c0-1.4,0-2.8,0-4.3
	c0-4.7,0-9.5,0-14.2c0-4.8,1.2-9.4,2.1-14.3c0.3-1.6,0.6-3.2,0.9-4.8C69.5,204.7,52.7,193.3,41.6,177.2z M105.2,196.9
	c-3.1,0-6.2-0.2-9.3-0.6c-21.4-2.5-39.8-16.4-48.1-36.3c-0.9-2.5-0.6-5.3,0.9-7.6c9.1-11.9,22.3-20.1,37-23.1
	c3.7-0.8,7.5,1.2,8.9,4.8l0.4,0.7c10.7,17.3,28.2,29.2,48.1,32.7c1.9,0.4,3.7,0.6,5.8,0.9l6,0.9l-2,3.7c-0.3,0.6-0.6,1.3-1.1,1.8
	C140.5,189,123.3,197.1,105.2,196.9z M87.7,133.1c-0.4-0.1-0.7-0.1-1.1,0c-13.8,2.9-26.1,10.7-34.6,22c-0.6,1.1-0.7,2.4-0.4,3.6
	c7.8,18.4,24.8,31.3,44.6,33.8c19.7,3.2,39.6-4.4,52.3-19.9h-0.3c-2.1,0-4.1-0.6-6.1-1c-21-3.7-39.5-16.3-50.7-34.4l-0.5-0.8
	C89.9,134,89.2,133.1,87.7,133.1z M219.3,192.2c-2.7,0-5.4-0.2-8-0.5c-18.7-2.3-35.3-13-45-29.1c-2.4-3-2-7.4,1-9.8
	c0.1-0.1,0.2-0.2,0.4-0.3c13.1-12,30.4-18.3,48.1-17.3l0,0c18,0.5,35.3,11.2,47.5,29.5c2.5,3,2.1,7.4-0.9,9.9
	c-0.1,0.1-0.2,0.2-0.4,0.3C250.6,185.9,235.2,192.2,219.3,192.2z M215.6,139.1c-16.7-0.9-33,4.8-45.4,16c-1.9,1.9-2,2.7-0.6,5.3
	c16.8,27.3,52.5,35.8,79.8,19.1c3.6-2.2,6.9-4.8,9.9-7.7c2-2,2.1-2.9,0.7-5C248.3,149.8,232.2,139.6,215.6,139.1L215.6,139.1z
	 M272.8,161.5l-2-3c-10.8-16.5-27.7-28-47-32.1l-2.2-0.5l0.8-2.1c6.3-17,6.3-35.7,0-52.7l-1.1-3.1l3.3,0.5
	c19.2,1.9,36.5,12.7,46.5,29.2c11.5,18.6,12.5,38.4,2.8,60.6L272.8,161.5z M227.1,123c18.1,4.4,34.1,15.1,45,30.2
	c12.6-29.5-1-63.6-30.5-76.2c-4.5-1.9-9.2-3.3-14-4C232.8,89.3,232.6,106.8,227.1,123z M151.7,158.7h-2.5
	c-8.4-0.7-16.6-3.2-23.9-7.5c-24.9-14.2-36.9-43.5-29.1-71c0.7-4.6,5-7.8,9.7-7.2c17.3,0.4,33.6,8,45,20.9c2.6,2.2,3.5,5.9,2,9.1
	c-6.5,15.4-7.3,32.6-2.2,48.6c0.2,0.9,0.4,1.9,0.5,2.8c0,0.5,0,1.2,0,1.9L151.7,158.7z M105.2,77c-3.1,0-4.2,1-5.3,4.3
	c-7.1,25.8,4.1,53.1,27.4,66.3c6.1,3.5,12.8,5.8,19.7,6.7c-0.1-0.5-0.1-1-0.3-1.6c-5.2-16.8-4.3-34.9,2.5-51.1c0.9-2,0.4-3-1.3-4.8
	c-10.7-12.2-26-19.3-42.1-19.6L105.2,77z M158.9,144.4l-0.5-2.1c-2-8.3-2-16.9,0-25.1c4.9-23.3,22.8-41.7,45.9-47.2
	c3.2-1.6,7.1-0.2,8.7,3.1c0.2,0.5,0.4,0.9,0.5,1.4c5.8,14.7,5.6,31-0.4,45.6c-1.1,2.7-3.5,4.7-6.3,5.3c-16,1-31.3,7.1-43.5,17.6
	c-0.5,0.3-1,0.6-1.6,0.6L158.9,144.4z M207.4,73.4c-0.7,0-1.3,0.2-1.9,0.4c-21.8,5.1-38.6,22.4-43.2,44.3
	c-1.7,6.8-1.8,13.9-0.5,20.8c12.7-10.4,28.4-16.5,44.8-17.6c1.3-0.6,2.3-1.5,2.9-2.8c5.7-13.7,5.8-29,0.4-42.8
	C209.2,74.2,208.6,73.5,207.4,73.4L207.4,73.4z M44.8,141.7l-0.9-3.2c-2.2-12.1,0.4-24.5,7.3-34.7c6.8-12.6,18.3-22,32.1-26l2.6-0.6
	v2.7c0,1.9-0.3,3.8-0.4,5.7c-0.5,4.3-0.7,8.6-0.6,12.9c0,4.2,0.3,8.4,0.8,12.6c0,2.1,0.5,4.2,0.7,6.5v1.8l-1.8,0.3
	c-14.1,2.9-27.1,9.7-37.4,19.7L44.8,141.7z M81.4,82.4C70,86.8,60.5,95.1,54.7,105.9c-5.4,8.4-8,18.3-7.5,28.2
	c10-8.8,22.1-15,35.1-17.9c0-1.6-0.3-3.1-0.5-4.6c-0.6-4.3-1-8.6-1.1-13c-0.1-4.3,0.1-8.7,0.5-13C81.2,84.3,81.3,83.4,81.4,82.4z
	 M160,89.1l-1.6-1.7c-13-14.2-30.9-22.8-50.1-24h-3.4l1.9-2.8c10.6-15.5,28-24.9,46.7-25.4c18.9-0.9,37.1,7.3,49,22l1.8,2.3
	l-2.8,0.9c-15.9,4.4-29.9,13.7-40.1,26.7L160,89.1z M111.9,59.9C130,61.8,146.8,70,159.5,83c9.8-12,23-20.9,37.8-25.5
	c-11.2-12.3-27.3-19-43.9-18.2c-16.1,0.4-31.1,7.9-41.1,20.5L111.9,59.9z"/>
</svg>
